<?xml version="1.0" encoding="UTF-8" standalone="no"?>
<!-- Created with Inkscape (http://www.inkscape.org/) -->

<svg
   width="283.86484mm"
   height="180.76062mm"
   viewBox="0 0 283.86484 180.76062"
   version="1.1"
   id="svg5"
   xml:space="preserve"
   xmlns:xlink="http://www.w3.org/1999/xlink"
   xmlns="http://www.w3.org/2000/svg"
   xmlns:svg="http://www.w3.org/2000/svg"><defs
     id="defs2"><linearGradient
       xlink:href="#linearGradient6213"
       id="linearGradient6197"
       x1="105.61319"
       y1="370.07462"
       x2="194.76744"
       y2="370.07462"
       gradientUnits="userSpaceOnUse"
       gradientTransform="matrix(1.392912,0,0,1.4835687,-110.04165,-383.00896)" /><linearGradient
       x1="0"
       y1="0"
       x2="1"
       y2="0"
       gradientUnits="userSpaceOnUse"
       gradientTransform="matrix(32.059325,0,0,-32.059325,548.88394,73.226126)"
       spreadMethod="pad"
       id="linearGradient6213"><stop
         style="stop-opacity:1;stop-color:#c19440"
         offset="0"
         id="stop6199" /><stop
         style="stop-opacity:1;stop-color:#fee8b2"
         offset="0.490798"
         id="stop6205" /><stop
         style="stop-opacity:0.99607843;stop-color:#c1953f"
         offset="1"
         id="stop6211" /></linearGradient></defs><g
     id="layer1"
     transform="translate(43.856456,-16.85684)"><g
       id="#ffffffff"
       transform="matrix(0.44531455,0,0,0.44531455,-64.394078,-19.813172)" /><path
       id="path4528"
       style="fill:url(#linearGradient6197);fill-opacity:1;fill-rule:nonzero;stroke:none;stroke-width:0.404628"
       d="m 160.74812,148.09055 -2.54902,-1.85639 c -9.04144,-7.45636 -17.35143,-2.41506 -24.92384,6.22654 -7.56927,8.63804 -9.55252,6.72217 -7.44212,3.94659 9.28604,-12.21296 -0.0648,-20.33697 -0.14926,-20.41637 -4.79894,-4.51135 -14.60029,-5.44694 -24.08868,0.69614 -18.754257,12.14208 -31.389639,15.7506 -44.904576,15.34837 l -0.864191,-0.0927 c -0.167038,-0.017 -0.639081,-0.13932 -0.726221,0.0697 0.102522,1.06564 1.055703,2.05933 1.063704,2.06822 12.010448,13.35313 38.042274,11.35258 41.751722,13.40289 0.370585,0.20484 0.246904,1.22982 -2.01889,2.19672 -3.347869,1.42322 -6.441564,2.01877 -10.087196,2.57569 -14.277455,2.21217 -35.228871,-0.13931 -43.645752,-2.16578 -2.026144,-0.48728 -3.543944,-0.8276 -4.219326,-0.99778 -0.167024,-0.0223 -0.370375,-0.0542 -0.52287,-0.017 -0.159771,0.0543 -0.232394,0.18553 -0.188811,0.34808 0.07258,0.31715 0.907776,0.88949 1.067542,1.00553 84.488305,59.52734 103.958235,4.33924 109.550135,-6.45085 5.59913,-10.79784 8.27889,-13.21885 12.22952,-14.48735 0.66086,-0.20891 1.26363,-0.30168 1.24909,-0.79671 -0.029,-0.26314 -0.58097,-0.60331 -0.58097,-0.60331" /><g
       id="g4161"
       transform="matrix(1.6031589,0,0,1.6031589,-59.155381,-64.681061)"><path
         style="fill:#003772;fill-opacity:1;stroke-width:0.264714"
         id="path9658"
         d="m 162.63421,73.257257 c 4.49306,-3.127997 9.94242,-4.99401 15.3892,-4.503238 2.4791,0.191456 5.12973,0.868289 6.88901,2.815198 1.62936,1.809385 1.96199,4.495148 1.51502,6.843843 -0.60808,2.91497 -2.47911,5.352651 -4.62819,7.245629 -3.28209,2.858343 -7.24763,4.724356 -11.28594,6.121167 -4.4255,1.512765 -9.02252,2.437681 -13.64031,3.022833 -0.71982,3.29788 -1.11481,6.744071 -0.59769,10.106671 0.33782,2.20307 1.40067,4.45739 3.38344,5.51714 2.34658,1.22693 5.12714,1.00042 7.60105,0.34515 4.73733,-1.35906 8.59373,-4.85918 11.64195,-8.73682 0.57431,-0.66335 1.00535,-1.73644 1.99577,-1.74466 0.71401,-0.006 0.86147,0.3111 0.79449,0.55333 -0.36526,1.32091 -1.24216,2.37837 -2.00876,3.46238 -3.19373,4.27404 -7.93288,8.35601 -12.93355,10.00904 -3.44235,1.1379 -6.07954,1.35926 -9.61944,0.60133 -3.18542,-0.68203 -6.14739,-2.70788 -7.705,-5.72207 -2.03897,-3.94569 -1.95418,-8.63436 -1.29672,-12.938051 1.57998,-9.273434 6.98777,-17.751386 14.50567,-22.998872 m 10.22866,-2.346718 c -3.15297,1.171335 -6.20335,4.981246 -8.39401,7.545666 -3.16516,3.845279 -5.78812,9.035669 -7.05106,13.924514 3.6537,-0.466503 7.78184,-1.691424 11.18112,-3.167287 3.06621,-1.331263 5.7804,-3.425988 8.00823,-6.027479 1.73251,-2.023092 3.42019,-6.084136 3.29806,-8.834616 -0.0598,-1.324006 -0.53965,-2.9797 -1.77228,-3.53687 -1.7259,-0.780134 -3.77847,-0.458055 -5.27006,0.09607 z" /><path
         id="path4512"
         style="fill:#003772;fill-opacity:1;fill-rule:nonzero;stroke:none;stroke-width:0.251735"
         d="m 100.98867,68.675911 c -16.317181,0.03894 -27.952203,16.896208 -27.890289,31.206881 0.03716,9.024768 4.930021,15.503058 14.653885,15.477088 15.444244,0 27.892354,-15.630784 27.892354,-31.350021 -0.0867,-8.18309 -4.18919,-15.34693 -14.65595,-15.333948 z m -0.0827,1.69137 c 4.61635,0.01299 6.62032,5.130734 6.64507,11.719181 0.0784,13.823842 -9.398082,31.579568 -19.177643,31.577398 -4.610166,-0.006 -6.917364,-4.60054 -6.888468,-12.12587 0.04548,-15.539647 10.693921,-31.170709 19.421041,-31.170709 z" /><path
         id="path4520"
         style="fill:#003772;fill-opacity:1;fill-rule:nonzero;stroke:none;stroke-width:0.227828"
         d="M 42.331769,50.893812 C 28.744365,50.359311 15.304183,56.426847 9.7595628,60.638821 9.1686315,61.087722 9.9242016,62.009312 10.392334,61.682936 23.024626,52.875881 40.220582,52.09091 48.113859,54.605452 61.314407,58.810719 69.075233,69.865564 64.244657,85.413391 59.322014,101.25755 46.951613,108.36157 37.46438,110.07597 c -9.42445,1.70306 -18.195272,1.35392 -18.195272,1.35392 -0.01717,0 -0.02684,-0.0288 -0.01344,-0.0424 C 28.72982,93.426561 36.253809,73.411266 42.7518,61.136707 c 1.560511,-1.325291 -2.190968,-1.418976 -3.537292,-0.894975 -14.05382,7.478337 -15.542269,26.209514 -27.91391,48.681308 -1.9427477,3.5288 -1.6395591,4.37751 1.276844,4.37751 2.914495,0 0.0016,-0.004 0.0016,-0.004 14.88801,0 19.880481,0.10649 25.548392,-0.25218 10.983803,-0.69517 32.729001,-7.69919 34.695014,-31.088132 1.879655,-22.36156 -13.902466,-30.40988 -30.490679,-31.062426 z" /><path
         id="rect3327"
         style="fill:#003772;fill-opacity:1;stroke-width:2.00003;paint-order:stroke fill markers;stop-color:#000000"
         d="m 122.04358,68.67787 -0.0974,44.9129 c -0.001,0.53225 0.15329,0.64324 0.59967,0.64324 h 4.37236 c 1.14531,0 1.35388,-0.20704 1.80018,-0.89421 l 28.52555,-43.920869 c 0.20328,-0.31406 0.19821,-0.741061 -0.33633,-0.741061 h -3.39307 c -1.00786,0 -1.07557,0.110661 -1.62471,0.957592 L 128.67611,105.2865 c 1.24896,-16.899299 3.31411,-35.427287 -6.63253,-36.60863 z"
         transform="matrix(1,0,-0.00755265,0.99997148,0,0)" /></g></g></svg>
